REM DIRINDEX 1\2\6,1\2\7,1\2\8,1\3\9,1\3\10,1\3\11,1\4\12,1\4\13,1\4\14,1\5\15,1\5\16,1\5\17,1\5\18
REM DIRNAME folder01,folder02,folder03,folder04,folder05,folder06,folder07,folder08,folder09,folder10,folder11,folder12,folder13,folder14,folder15,folder16,folder17,folder18
TITLE ""
FILE "2Q_t_0352-0369.mp3" MP3
  TRACK 01 AUDIO
    TITLE "13:cjc019_2761"
    INDEX 01 00:00:00
  TRACK 02 AUDIO
    TITLE "0:"
    INDEX 01 00:01:03
  TRACK 03 AUDIO
    TITLE "14:cjc019_2762"
    INDEX 01 00:01:58
  TRACK 04 AUDIO
    TITLE "0:"
    INDEX 01 00:04:31
  TRACK 05 AUDIO
    TITLE "13:cjc019_2763"
    INDEX 01 00:05:10
  TRACK 06 AUDIO
    TITLE "0:"
    INDEX 01 00:06:26
  TRACK 07 AUDIO
    TITLE "14:cjc019_2764"
    INDEX 01 00:07:15
  TRACK 08 AUDIO
    TITLE "0:"
    INDEX 01 00:10:27
  TRACK 09 AUDIO
    TITLE "13:cjc019_2765"
    INDEX 01 00:11:13
  TRACK 10 AUDIO
    TITLE "0:"
    INDEX 01 00:12:24
  TRACK 11 AUDIO
    TITLE "14:cjc019_2766"
    INDEX 01 00:13:02
  TRACK 12 AUDIO
    TITLE "0:"
    INDEX 01 00:15:52
  TRACK 13 AUDIO
    TITLE "13:cjc019_2767"
    INDEX 01 00:16:30
  TRACK 14 AUDIO
    TITLE "0:"
    INDEX 01 00:17:59
  TRACK 15 AUDIO
    TITLE "14:cjc019_2768"
    INDEX 01 00:18:44
  TRACK 16 AUDIO
    TITLE "0:"
    INDEX 01 00:22:68
  TRACK 17 AUDIO
    TITLE "13:cjc019_2769"
    INDEX 01 00:23:48
  TRACK 18 AUDIO
    TITLE "0:"
    INDEX 01 00:25:01
  TRACK 19 AUDIO
    TITLE "14:cjc019_2770"
    INDEX 01 00:25:52
  TRACK 20 AUDIO
    TITLE "0:"
    INDEX 01 00:27:69
  TRACK 21 AUDIO
    TITLE "13:cjc019_2771"
    INDEX 01 00:28:45
  TRACK 22 AUDIO
    TITLE "0:"
    INDEX 01 00:29:74
  TRACK 23 AUDIO
    TITLE "14:cjc019_2772"
    INDEX 01 00:30:61
  TRACK 24 AUDIO
    TITLE "0:"
    INDEX 01 00:32:23
  TRACK 25 AUDIO
    TITLE "13:cjc019_2773"
    INDEX 01 00:33:05
  TRACK 26 AUDIO
    TITLE "0:"
    INDEX 01 00:34:12
  TRACK 27 AUDIO
    TITLE "14:cjc019_2774"
    INDEX 01 00:35:02
  TRACK 28 AUDIO
    TITLE "0:"
    INDEX 01 00:39:09
  TRACK 29 AUDIO
    TITLE "13:cjc019_2775"
    INDEX 01 00:39:70
  TRACK 30 AUDIO
    TITLE "0:"
    INDEX 01 00:41:38
  TRACK 31 AUDIO
    TITLE "14:cjc019_2776"
    INDEX 01 00:42:18
  TRACK 32 AUDIO
    TITLE "0:"
    INDEX 01 00:43:35
  TRACK 33 AUDIO
    TITLE "13:cjc019_2777"
    INDEX 01 00:44:20
  TRACK 34 AUDIO
    TITLE "0:"
    INDEX 01 00:45:37
  TRACK 35 AUDIO
    TITLE "14:cjc019_2778"
    INDEX 01 00:46:19
  TRACK 36 AUDIO
    TITLE "0:"
    INDEX 01 00:48:59
  TRACK 37 AUDIO
    TITLE "13:cjc019_2779"
    INDEX 01 00:49:41
  TRACK 38 AUDIO
    TITLE "0:"
    INDEX 01 00:50:46
  TRACK 39 AUDIO
    TITLE "14:cjc019_2780"
    INDEX 01 00:51:24
  TRACK 40 AUDIO
    TITLE "0:"
    INDEX 01 00:54:05
  TRACK 41 AUDIO
    TITLE "13:cjc019_2781"
    INDEX 01 00:54:56
  TRACK 42 AUDIO
    TITLE "0:"
    INDEX 01 00:56:10
  TRACK 43 AUDIO
    TITLE "14:cjc019_2782"
    INDEX 01 00:56:71
  TRACK 44 AUDIO
    TITLE "0:"
    INDEX 01 00:59:45
  TRACK 45 AUDIO
    TITLE "13:cjc019_2783"
    INDEX 01 01:00:23
  TRACK 46 AUDIO
    TITLE "0:"
    INDEX 01 01:01:36
  TRACK 47 AUDIO
    TITLE "14:cjc019_2784"
    INDEX 01 01:02:14
  TRACK 48 AUDIO
    TITLE "0:"
    INDEX 01 01:03:39
  TRACK 49 AUDIO
    TITLE "13:cjc019_2785"
    INDEX 01 01:04:19
  TRACK 50 AUDIO
    TITLE "0:"
    INDEX 01 01:05:58
  TRACK 51 AUDIO
    TITLE "14:cjc019_2786"
    INDEX 01 01:06:42
  TRACK 52 AUDIO
    TITLE "0:"
    INDEX 01 01:09:40
  TRACK 53 AUDIO
    TITLE "13:cjc019_2787"
    INDEX 01 01:10:16
  TRACK 54 AUDIO
    TITLE "0:"
    INDEX 01 01:11:25
  TRACK 55 AUDIO
    TITLE "14:cjc019_2788"
    INDEX 01 01:12:09
  TRACK 56 AUDIO
    TITLE "0:"
    INDEX 01 01:14:29
  TRACK 57 AUDIO
    TITLE "13:cjc019_2789"
    INDEX 01 01:15:11
  TRACK 58 AUDIO
    TITLE "0:"
    INDEX 01 01:16:16
  TRACK 59 AUDIO
    TITLE "14:cjc019_2790"
    INDEX 01 01:16:71
  TRACK 60 AUDIO
    TITLE "0:"
    INDEX 01 01:19:62
  TRACK 61 AUDIO
    TITLE "13:cjc019_2791"
    INDEX 01 01:20:40
  TRACK 62 AUDIO
    TITLE "0:"
    INDEX 01 01:21:47
  TRACK 63 AUDIO
    TITLE "14:cjc019_2792"
    INDEX 01 01:22:27
  TRACK 64 AUDIO
    TITLE "0:"
    INDEX 01 01:26:29
  TRACK 65 AUDIO
    TITLE "13:cjc019_2793"
    INDEX 01 01:27:08
  TRACK 66 AUDIO
    TITLE "0:"
    INDEX 01 01:28:51
  TRACK 67 AUDIO
    TITLE "14:cjc019_2794"
    INDEX 01 01:29:33
  TRACK 68 AUDIO
    TITLE "0:"
    INDEX 01 01:32:06
  TRACK 69 AUDIO
    TITLE "13:cjc019_2795"
    INDEX 01 01:32:60
  TRACK 70 AUDIO
    TITLE "0:"
    INDEX 01 01:33:70
  TRACK 71 AUDIO
    TITLE "14:cjc019_2796"
    INDEX 01 01:34:54
  TRACK 72 AUDIO
    TITLE "0:"
    INDEX 01 01:38:47
